<?xml version="1.0" encoding="UTF-8"?>
<!DOCTYPE svg PUBLIC "-//W3C//DTD SVG 1.1//EN" "http://www.w3.org/Graphics/SVG/1.1/DTD/svg11.dtd">
<svg xmlns="http://www.w3.org/2000/svg" version="1.1" width="50px" height="50px" style="shape-rendering:geometricPrecision; text-rendering:geometricPrecision; image-rendering:optimizeQuality; fill-rule:evenodd; clip-rule:evenodd" xmlns:xlink="http://www.w3.org/1999/xlink">
<g><path style="opacity:1" fill="#cf724c" d="M 20.5,2.5 C 20.366,4.29152 20.6993,5.95819 21.5,7.5C 17.6625,7.02164 14.3291,8.02164 11.5,10.5C 11.5,8.5 11.5,6.5 11.5,4.5C 14.2457,2.87361 17.2457,2.20695 20.5,2.5 Z"/></g>
<g><path style="opacity:1" fill="#d24648" d="M 20.5,2.5 C 23.5533,2.11066 26.22,2.77733 28.5,4.5C 28.5,6.16667 28.5,7.83333 28.5,9.5C 26.412,8.06054 24.0786,7.39387 21.5,7.5C 20.6993,5.95819 20.366,4.29152 20.5,2.5 Z"/></g>
<g><path style="opacity:1" fill="#b35261" d="M 28.5,4.5 C 29.4916,4.32842 30.1583,4.66175 30.5,5.5C 30.5,7.5 30.5,9.5 30.5,11.5C 29.5,11.1667 28.8333,10.5 28.5,9.5C 28.5,7.83333 28.5,6.16667 28.5,4.5 Z"/></g>
<g><path style="opacity:1" fill="#9a6580" d="M 30.5,5.5 C 31.8333,6.16667 32.8333,7.16667 33.5,8.5C 33.81,11.7131 33.4767,14.7131 32.5,17.5C 32.3964,15.2972 31.7298,13.2972 30.5,11.5C 30.5,9.5 30.5,7.5 30.5,5.5 Z"/></g>
<g><path style="opacity:1" fill="#d3494a" d="M 11.5,4.5 C 11.5,6.5 11.5,8.5 11.5,10.5C 7.5,16.5 7.5,22.5 11.5,28.5C 11.5,30.5 11.5,32.5 11.5,34.5C 3.06304,27.7609 1.22971,19.4276 6,9.5C 7.70383,7.62658 9.53717,5.95991 11.5,4.5 Z"/></g>
<g><path style="opacity:1" fill="#878fb2" d="M 33.5,8.5 C 34.9063,8.97306 35.573,9.97306 35.5,11.5C 35.5,16.8333 35.5,22.1667 35.5,27.5C 35.4326,28.9587 35.7659,30.2921 36.5,31.5C 35.8333,34.1667 35.1667,36.8333 34.5,39.5C 33.5,39.1667 32.8333,38.5 32.5,37.5C 33.8333,32.1667 33.8333,26.8333 32.5,21.5C 32.5,20.1667 32.5,18.8333 32.5,17.5C 33.4767,14.7131 33.81,11.7131 33.5,8.5 Z"/></g>
<g><path style="opacity:1" fill="#5a92b6" d="M 35.5,11.5 C 37.0468,13.8066 37.7135,16.4733 37.5,19.5C 37.7135,22.5267 37.0468,25.1934 35.5,27.5C 35.5,22.1667 35.5,16.8333 35.5,11.5 Z"/></g>
<g><path style="opacity:1" fill="#a26f89" d="M 32.5,21.5 C 33.8333,26.8333 33.8333,32.1667 32.5,37.5C 31.1667,36.8333 30.1667,35.8333 29.5,34.5C 30.4682,32.3926 30.8016,30.0593 30.5,27.5C 31.7298,25.7028 32.3964,23.7028 32.5,21.5 Z"/></g>
<g><path style="opacity:1" fill="#b35261" d="M 30.5,27.5 C 30.8016,30.0593 30.4682,32.3926 29.5,34.5C 29.1667,34.5 28.8333,34.5 28.5,34.5C 28.5,32.8333 28.5,31.1667 28.5,29.5C 28.8333,28.5 29.5,27.8333 30.5,27.5 Z"/></g>
<g><path style="opacity:1" fill="#d24648" d="M 28.5,29.5 C 28.5,31.1667 28.5,32.8333 28.5,34.5C 26.22,36.2227 23.5533,36.8893 20.5,36.5C 20.366,34.7085 20.6993,33.0418 21.5,31.5C 24.0786,31.6061 26.412,30.9395 28.5,29.5 Z"/></g>
<g><path style="opacity:1" fill="#ce774c" d="M 11.5,28.5 C 14.3291,30.9784 17.6625,31.9784 21.5,31.5C 20.6993,33.0418 20.366,34.7085 20.5,36.5C 17.2457,36.7931 14.2457,36.1264 11.5,34.5C 11.5,32.5 11.5,30.5 11.5,28.5 Z"/></g>
<g><path style="opacity:1" fill="#6497ad" d="M 36.5,31.5 C 38.8333,33.1667 40.8333,35.1667 42.5,37.5C 41.5233,40.2869 41.19,43.2869 41.5,46.5C 38.8333,44.5 36.5,42.1667 34.5,39.5C 35.1667,36.8333 35.8333,34.1667 36.5,31.5 Z"/></g>
<g><path style="opacity:1" fill="#3e8487" d="M 42.5,37.5 C 47.7341,40.795 47.4007,43.795 41.5,46.5C 41.19,43.2869 41.5233,40.2869 42.5,37.5 Z"/></g>
</svg>
